<svg width="32" height="40" viewBox="0 0 32 40" fill="none" xmlns="http://www.w3.org/2000/svg">
<path d="M21.09 14.98C20.24 14.04 18.82 13.57 16.76 13.57H16.52V13.53C16.52 11.85 16.52 9.77002 12.76 9.77002H11.24C7.48004 9.77002 7.48004 11.86 7.48004 13.53V13.58H7.24004C5.17004 13.58 3.76004 14.05 2.91004 14.99C1.92004 16.09 1.95004 17.57 2.05004 18.58L2.06004 18.65L2.13749 19.4633C2.15176 19.6131 2.23242 19.7484 2.35831 19.8307C2.59812 19.9877 2.99946 20.2464 3.24004 20.38C3.38004 20.47 3.53004 20.55 3.68004 20.63C5.39004 21.57 7.27004 22.2 9.18004 22.51C9.27004 23.45 9.68004 24.55 11.87 24.55C14.06 24.55 14.49 23.46 14.56 22.49C16.6 22.16 18.57 21.45 20.35 20.41C20.41 20.38 20.45 20.35 20.5 20.32C20.8968 20.0958 21.3083 19.8195 21.6835 19.5489C21.7965 19.4673 21.8688 19.3413 21.8842 19.2028L21.9 19.06L21.95 18.59C21.96 18.53 21.96 18.48 21.97 18.41C22.05 17.4 22.03 16.02 21.09 14.98ZM13.09 21.83C13.09 22.89 13.09 23.05 11.86 23.05C10.63 23.05 10.63 22.86 10.63 21.84V20.58H13.09V21.83ZM8.91004 13.57V13.53C8.91004 11.83 8.91004 11.2 11.24 11.2H12.76C15.09 11.2 15.09 11.84 15.09 13.53V13.58H8.91004V13.57Z" fill="#001B21"/>
<path d="M20.8736 21.7341C21.2272 21.5659 21.6344 21.8462 21.599 22.2361L21.2401 26.19C21.0301 28.19 20.2101 30.23 15.8101 30.23H8.19009C3.79009 30.23 2.97009 28.19 2.76009 26.2L2.41938 22.4521C2.38433 22.0667 2.78229 21.7867 3.13493 21.9463C4.27434 22.4618 6.37748 23.3764 7.67666 23.7166C7.84097 23.7597 7.97386 23.8773 8.0458 24.0311C8.65277 25.3292 9.9692 26.02 11.8701 26.02C13.7522 26.02 15.0852 25.3026 15.6942 24.0013C15.7663 23.8474 15.8993 23.7298 16.0637 23.6865C17.4433 23.3235 19.6819 22.3012 20.8736 21.7341Z" fill="#001B21"/>
</svg>
