<svg xmlns="http://www.w3.org/2000/svg" width="24" height="26.447" viewBox="0 0 24 26.447"><defs><style>.a{fill:#d3d3d3;}</style></defs><path class="a" d="M47.5,12.907a.778.778,0,0,0,.192-.526,5.957,5.957,0,0,0-2.991-5.4,8.261,8.261,0,0,0-4.058-.827c.005,0-.073.1,1.753-2.346a2.324,2.324,0,0,0-1.636-3.8.864.864,0,0,0-.517.085.783.783,0,0,0-.2.155,5.745,5.745,0,0,1-2.27,1.326A3.738,3.738,0,0,0,35.933.092.775.775,0,0,0,35.419.1a3.726,3.726,0,0,0-1.81,1.472A5.97,5.97,0,0,1,31.371.278a.788.788,0,0,0-.6-.277A2.324,2.324,0,0,0,28.985,3.81l1.753,2.346a10.057,10.057,0,0,0-2.328.2c-3.1.673-4.656,3.012-4.721,6.02a.775.775,0,1,0,1.549.034,4.646,4.646,0,0,1,1.69-3.763,6.4,6.4,0,0,1,4.026-.941l-5,6.886a6.966,6.966,0,0,0,2.512,10.13c.186.1.282.14.523.247a15.976,15.976,0,0,0,13.407,0c.129-.057.263-.118.39-.18a6.966,6.966,0,0,0,2.85-9.869c-.2-.322.164.19-5.212-7.212a6.4,6.4,0,0,1,4.026.941,4.646,4.646,0,0,1,1.69,3.763A.775.775,0,0,0,47.5,12.907Zm-3.26,2.7a5.416,5.416,0,0,1-2.273,7.857,14.455,14.455,0,0,1-12.549,0A5.415,5.415,0,0,1,27.14,15.61c.093-.144-.34.458,5.592-7.71q.763.125,1.6.327a3.452,3.452,0,0,1-1.171,1.935.776.776,0,0,0,.465,1.395.949.949,0,0,0,.65-.3,4.845,4.845,0,0,0,1.416-2.175A4.844,4.844,0,0,0,37.1,11.253a.944.944,0,0,0,.65.3.786.786,0,0,0,.277-.052.775.775,0,0,0,.189-1.343,3.454,3.454,0,0,1-1.171-1.935c.023,0,.65-.173,1.6-.327,5.963,8.211,5.5,7.568,5.592,7.71ZM30.213,2.865A.8.8,0,0,1,30,2.3a.787.787,0,0,1,.514-.712,7.484,7.484,0,0,0,2.934,1.546,4.115,4.115,0,0,0,.536.114.775.775,0,0,0,.789-.527,1.842,1.842,0,0,1,.683-.895,2.533,2.533,0,0,1,.232-.149s0,0,.005,0a2.263,2.263,0,0,1,.411.294,2.043,2.043,0,0,1,.558.874.768.768,0,0,0,.308.309.947.947,0,0,0,.769.028,7.465,7.465,0,0,0,3.127-1.594.779.779,0,0,1,.372,1.178c-.046.064,0,0-.152.2L38.564,6.345a24.38,24.38,0,0,0-2.875.638,24.368,24.368,0,0,0-2.875-.638c-.005,0-.042-.056-2.6-3.48Z" transform="translate(-23.688 0)"/></svg>