<svg width="32" height="40" viewBox="0 0 32 40" fill="none" xmlns="http://www.w3.org/2000/svg">
<path d="M12 10C9.38 10 7.25 12.13 7.25 14.75C7.25 17.32 9.26 19.4 11.88 19.49C11.96 19.48 12.04 19.48 12.1 19.49C12.12 19.49 12.13 19.49 12.15 19.49C12.16 19.49 12.16 19.49 12.17 19.49C14.73 19.4 16.74 17.32 16.75 14.75C16.75 12.13 14.62 10 12 10Z" fill="white"/>
<path d="M17.08 22.15C14.29 20.29 9.73996 20.29 6.92996 22.15C5.65996 23 4.95996 24.15 4.95996 25.38C4.95996 26.61 5.65996 27.75 6.91996 28.59C8.31996 29.53 10.16 30 12 30C13.84 30 15.68 29.53 17.08 28.59C18.34 27.74 19.04 26.6 19.04 25.36C19.03 24.13 18.34 22.99 17.08 22.15Z" fill="white"/>
</svg>
